<svg width="124" height="124" viewBox="0 0 60 60" fill="none" xmlns="http://www.w3.org/2000/svg">
<path d="M52.3711 31.4716C58.8427 36.2167 60.4565 42.7284 55.9725 46.0154C52.466 48.5874 46.2674 48.4228 40.6353 45.9561C39.4531 45.4399 38.2947 44.8198 37.1925 44.1019C36.8351 43.8705 36.482 43.6273 36.1364 43.3736C32.1404 40.4441 29.9971 36.8412 29.9971 33.7382C29.9971 31.8173 30.8203 30.0877 32.535 28.83C32.8569 28.5941 33.201 28.3819 33.5644 28.1907C38.2798 25.7313 46.3637 27.0663 52.3711 31.4716Z" fill="#FFF3E6"/>
<path d="M37.1925 44.1021L37.1569 44.1569H22.7185H22.717C21.6357 44.854 20.5039 45.4563 19.3484 45.9605V45.9621C19.7236 47.3889 20.2383 48.721 20.8702 49.9224L21.0378 49.9061H38.9441L39.1132 49.9195C39.7451 48.7166 40.2613 47.3846 40.635 45.9561C39.4531 45.44 38.2946 44.8199 37.1925 44.1021Z" fill="#666666"/>
<path d="M38.9443 49.9062L39.1134 49.9196C37.0471 53.8474 33.7291 56.3927 29.9911 56.3927C26.2532 56.3927 22.9365 53.8474 20.8704 49.9225L21.0379 49.9062H38.9443Z" fill="#F0C419"/>
<path d="M37.1925 44.1021L37.1569 44.1569H22.7185C23.1057 43.9078 23.4854 43.6467 23.8577 43.3737C27.8537 40.4443 29.9971 36.8413 29.9971 33.7383C29.9971 36.8413 32.1404 40.4443 36.1364 43.3737C36.482 43.6273 36.835 43.8706 37.1925 44.1021Z" fill="#F0C419"/>
<path d="M26.5693 14.534C27.5973 14.0133 28.7602 13.7212 29.9914 13.7212C34.1846 13.7212 37.5843 17.1209 37.5843 21.3157C37.5843 24.2467 35.9231 26.7891 33.4919 28.0544C32.4447 28.6002 31.2536 28.9088 29.9914 28.9088C28.732 28.9088 27.5454 28.6033 26.4997 28.0603C24.0627 26.7966 22.397 24.2497 22.397 21.3158C22.3967 18.352 24.0936 15.7859 26.5693 14.534Z" fill="#F0C419"/>
<path d="M27.4591 28.8301C29.1738 30.0879 29.9971 31.8175 29.9971 33.7383C29.9971 36.8413 27.8537 40.4443 23.8577 43.3737C23.4854 43.6467 23.1057 43.9078 22.7185 44.1569H22.717C21.6357 44.8541 20.5039 45.4563 19.3484 45.9606C13.7193 48.4228 7.52658 48.586 4.02148 46.0154C-0.462494 42.7284 1.1513 36.2167 7.6229 31.4716C13.6302 27.0663 21.7142 25.7313 26.4296 28.1906C26.7931 28.3822 27.1372 28.5943 27.4591 28.8301Z" fill="#FFF3E6"/>
<path d="M29.9911 30.392C28.5391 30.392 27.0954 30.0409 25.816 29.3767C22.7922 27.8087 20.9133 24.7197 20.9133 21.3157C20.9133 17.8717 22.8236 14.7661 25.899 13.2107C27.1558 12.5742 28.5709 12.2378 29.9911 12.2378C34.9957 12.2378 39.0674 16.3101 39.0674 21.3155C39.0674 24.7136 37.1932 27.7999 34.1762 29.3699C32.8943 30.0386 31.4468 30.392 29.9911 30.392ZM29.9911 15.2045C29.0204 15.2045 28.0947 15.4243 27.2391 15.8574C27.2391 15.8574 27.2387 15.8575 27.2384 15.8577C25.1667 16.9054 23.8798 18.9969 23.8798 21.3157C23.8798 23.6074 25.1452 25.6871 27.1822 26.7433C28.0541 27.196 28.9987 27.4254 29.9911 27.4254C30.9852 27.4254 31.9323 27.1944 32.8059 26.739C34.8387 25.6812 36.1009 23.6032 36.1009 21.3157C36.1009 17.946 33.3601 15.2045 29.9911 15.2045Z" fill="black"/>
<path d="M29.9911 57.8758C25.8522 57.8758 21.952 55.1609 19.5577 50.6134C18.8678 49.3015 18.3148 47.8637 17.9139 46.3393C17.7055 45.5471 18.1789 44.7358 18.971 44.5276C19.7632 44.3186 20.5745 44.7925 20.7829 45.5847C21.1267 46.8921 21.5978 48.1193 22.1829 49.232C24.0824 52.8396 26.9284 54.9092 29.991 54.9092C33.0101 54.9092 35.9293 52.7857 37.8004 49.2287C38.3888 48.1086 38.8599 46.881 39.2001 45.5804C39.4073 44.7879 40.2176 44.3134 41.0106 44.5209C41.8032 44.7283 42.2776 45.5387 42.0702 46.3315C41.6729 47.8497 41.1201 49.2891 40.4266 50.6092C38.0328 55.1596 34.1319 57.8758 29.9911 57.8758Z" fill="black"/>
<path d="M49.2586 49.3696C46.3621 49.3697 43.1701 48.6855 40.0403 47.3146C38.7666 46.7583 37.5356 46.0954 36.3831 45.3447C36.0036 45.0992 35.6244 44.8375 35.259 44.5693C31.0357 41.4731 28.5139 37.4239 28.5139 33.738C28.5139 31.2888 29.6304 29.1209 31.6577 27.6337C32.0306 27.3606 32.4394 27.1066 32.8733 26.8779C35.4577 25.5304 38.958 25.1466 42.7341 25.7949C46.4422 26.4313 50.1763 28.0226 53.2484 30.2754C53.9088 30.7599 54.0517 31.6881 53.5672 32.3487C53.0825 33.0094 52.1544 33.1523 51.4937 32.6676C46.0621 28.6845 38.488 27.2956 34.25 29.5056C33.9502 29.6636 33.6661 29.8396 33.4116 30.0263C32.1301 30.9661 31.4802 32.2151 31.4802 33.7381C31.4802 36.4825 33.5484 39.6374 37.0132 42.1773C37.3326 42.4117 37.664 42.6401 37.9984 42.8566C39.0177 43.5205 40.1032 44.1052 41.2287 44.5965C46.5359 46.9212 52.1083 47.0105 55.095 44.8192C57.3641 43.1558 57.2313 40.8562 56.7206 39.2201C56.4765 38.4381 56.9126 37.6064 57.6946 37.3623C58.4761 37.1183 59.3084 37.5542 59.5524 38.3362C60.6653 41.9014 59.68 45.1364 56.8491 47.2115C54.8896 48.6494 52.2294 49.3695 49.2586 49.3696Z" fill="black"/>
<path d="M55.8107 36.1511C55.3839 36.1511 54.9606 35.9679 54.6672 35.6135C54.5373 35.4567 54.3996 35.2975 54.2575 35.1397C53.7093 34.5312 53.758 33.5932 54.3667 33.0449C54.9751 32.4967 55.9132 32.5453 56.4615 33.1539C56.6312 33.3423 56.7963 33.5333 56.9523 33.7219C57.4746 34.3528 57.3866 35.288 56.7554 35.8104C56.4789 36.0394 56.1437 36.1511 55.8107 36.1511Z" fill="black"/>
<path d="M10.7362 49.3694C7.76442 49.3695 5.10483 48.6494 3.14428 47.2118C1.1168 45.7254 0.000117192 43.5574 4.08417e-09 41.1073C-0.000117184 37.4221 2.52166 33.3727 6.74594 30.2755C9.81779 28.0226 13.5519 26.4314 17.2599 25.795C21.0372 25.1466 24.5369 25.5305 27.1156 26.8755C27.5548 27.1067 27.9636 27.3607 28.3358 27.6334C30.3638 29.121 31.4804 31.289 31.4804 33.7382C31.4804 37.4241 28.9586 41.4734 24.7347 44.5701C24.3394 44.8598 23.9311 45.1404 23.5212 45.4042C23.5074 45.4131 23.4934 45.4217 23.4795 45.4301C22.3621 46.1473 21.172 46.7832 19.9417 47.3201C16.8172 48.687 13.6289 49.3693 10.7362 49.3694ZM20.8063 28.456C16.8601 28.456 12.187 29.9642 8.50013 32.668C5.03499 35.2087 2.96638 38.3636 2.9665 41.1072C2.9665 42.6306 3.61666 43.8795 4.89835 44.8192C7.88384 47.0084 13.4518 46.9209 18.7539 44.6016C19.855 44.121 20.9174 43.5522 21.9131 42.9102C21.9267 42.9014 21.9404 42.893 21.954 42.8849C22.3008 42.6605 22.6461 42.4227 22.9807 42.1773C26.4452 39.6375 28.5135 36.4827 28.5135 33.7382C28.5135 32.2154 27.8636 30.9663 26.5816 30.026C26.3276 29.84 26.0437 29.6637 25.7385 29.5031C24.379 28.7942 22.6738 28.456 20.8063 28.456Z" fill="black"/>
<path d="M26.5691 16.0179C25.8734 16.0179 25.2894 15.5395 25.1292 14.8933L22.0519 4.01148C21.829 3.22327 22.2875 2.40342 23.0757 2.18053C23.8638 1.95717 24.6838 2.41596 24.9066 3.20417L27.9963 14.1301C28.0333 14.2613 28.0522 14.3973 28.0522 14.5337C28.0523 15.3531 27.3882 16.0179 26.5691 16.0179Z" fill="black"/>
<path d="M33.5205 16.0189C33.387 16.0189 33.2511 16.0007 33.1162 15.9626C32.328 15.7398 31.8696 14.9199 32.0924 14.1317L35.1821 3.20429C35.405 2.41596 36.2244 1.95717 37.013 2.18053C37.8012 2.40331 38.2596 3.22315 38.0368 4.01136L34.9471 14.9388C34.7623 15.5922 34.1677 16.0189 33.5205 16.0189Z" fill="black"/>
<path d="M38.9444 51.3894H21.0379C20.2189 51.3894 19.5547 50.7252 19.5547 49.9061C19.5547 49.0868 20.2189 48.4229 21.0379 48.4229H38.9444C39.7634 48.4229 40.4277 49.087 40.4277 49.9061C40.4278 50.7254 39.7636 51.3894 38.9444 51.3894Z" fill="black"/>
<path d="M37.1569 45.6403H22.7184C21.8994 45.6403 21.2344 44.9762 21.2344 44.1571C21.2344 43.3378 21.8979 42.6738 22.7169 42.6738H37.1569C37.9759 42.6738 38.6401 43.3379 38.6401 44.1571C38.6401 44.9763 37.9759 45.6403 37.1569 45.6403Z" fill="black"/>
</svg>
  