<svg width="99" height="55" viewBox="0 0 99 55" fill="none" xmlns="http://www.w3.org/2000/svg">
<path d="M19.7695 24.8941C20.1848 26.9797 21.4044 28.4568 23.1453 29.2685C25.9576 30.5799 30.1288 30.16 34.4726 27.7765C34.8773 27.5544 35.2744 27.3206 35.6638 27.075L35.6644 27.0736C36.7532 26.3883 37.7774 25.617 38.7227 24.7829C43.3332 20.7218 46.0983 15.1783 45.2499 10.9152C44.1658 5.46218 37.5822 4.17282 30.5467 8.03273C24.0153 11.6154 19.389 18.3778 19.625 23.6908C19.645 24.1012 19.6919 24.5027 19.7695 24.8941Z" fill="#FFF3E6"/>
<circle cx="6.5" cy="6.5" r="6.5" transform="matrix(-0.798635 -0.601815 -0.601815 0.798635 22.5355 16.5)" fill="#F0C419"/>
<path d="M20.2097 27.8946L20.5219 22.4953L16.2165 24.8856L12.617 24.6774L10.7188 23.8731L9.81039 27.571L12.1079 28.6762L17.1079 28.6876L20.2097 27.8946Z" fill="#F0C419"/>
<path d="M23.989 37.0037L21.7956 34.0987L19.394 34.7933L15.1927 35.3837L10.4936 34.9731L11.0897 36.6744L13.4856 38.4799L18.8849 38.7921L23.989 37.0037Z" fill="#F0C419"/>
<ellipse cx="3.18095" cy="7.75871" rx="3.18095" ry="7.75871" transform="matrix(-0.385635 -0.922651 -0.922651 0.385635 33.5441 45.0938)" fill="#F0C419"/>
<path d="M45.719 19.5217C46.9278 16.8069 47.3517 14.0844 46.8359 11.7086C46.3026 9.25184 44.7763 7.34989 42.538 6.35321C39.1714 4.85419 34.4465 5.51094 29.8988 8.11024C26.5913 10.0002 23.6189 12.7643 21.5293 15.8929C19.4006 19.0798 18.3279 22.4331 18.5077 25.3359C18.5403 25.8312 18.6061 26.308 18.7038 26.7589C19.2379 29.2167 20.7643 31.1185 23.0018 32.1147C26.369 33.6139 31.0939 32.9571 35.6409 30.3579C36.0663 30.1146 36.4888 29.8558 36.8965 29.5886C36.9103 29.5796 36.9238 29.5703 36.9371 29.561C38.0468 28.832 39.1117 28.0034 40.1027 27.0978C42.6222 24.7995 44.5423 22.1643 45.719 19.5217ZM22.5178 20.215C24.1228 16.6099 27.4014 12.9543 31.371 10.6859C35.1015 8.55375 38.8249 7.94717 41.3313 9.0632C42.723 9.68284 43.5995 10.7848 43.9367 12.3379C44.7223 15.9557 42.3776 21.0066 38.1023 24.907C37.2154 25.7174 36.2636 26.4566 35.2722 27.1052C35.2586 27.114 35.2453 27.1231 35.2324 27.1322C34.8864 27.3578 34.5287 27.5765 34.1684 27.7824C30.4391 29.9143 26.7157 30.5206 24.2085 29.4044C22.8173 28.785 21.9406 27.6832 21.603 26.1295C21.5364 25.8219 21.4909 25.4908 21.4682 25.1467C21.3736 23.6164 21.7582 21.921 22.5178 20.215Z" fill="black"/>
<path d="M12.9966 9.21875L10.926 1.49134" stroke="black" stroke-width="3" stroke-linecap="round"/>
<path d="M17.2355 10.2402L18.7619 2.38722" stroke="black" stroke-width="3" stroke-linecap="round"/>
<path d="M15.7946 26.107C17.2004 25.7303 18.5072 25.0158 19.5735 24.0408C22.0944 21.7382 23.1122 18.26 22.2291 14.9641C21.3356 11.6297 18.6804 9.11836 15.2992 8.41022C13.9172 8.12007 12.4598 8.16143 11.0848 8.52987C6.2392 9.82824 3.35338 14.8274 4.65196 19.6738C5.53354 22.9638 8.14883 25.4658 11.4773 26.2031C12.8919 26.518 14.3851 26.4847 15.7946 26.107ZM11.8544 11.4023C12.7943 11.1505 13.7475 11.1231 14.6883 11.3205C14.6883 11.3205 14.6888 11.3205 14.6891 11.3206C16.9668 11.7975 18.7553 13.4886 19.3569 15.7337C19.9514 17.9526 19.2658 20.2945 17.5676 21.8456C16.8409 22.5101 15.9857 22.9772 15.0249 23.2347C14.0624 23.4926 13.0855 23.5147 12.1215 23.3004C9.87887 22.8035 8.11766 21.1191 7.52421 18.9043C6.65002 15.6418 8.59248 12.2763 11.8544 11.4023Z" fill="black"/>
<path fill-rule="evenodd" clip-rule="evenodd" d="M33.1829 41.2661C33.1744 45.2788 31.7447 48.6217 28.9424 50.239C23.6796 53.2766 15.5686 49.0779 10.8261 40.8611C7.12198 34.4433 6.56832 27.4724 9.0111 23.2802C9.81249 23.8739 10.7227 24.3306 11.7093 24.6195C11.0645 25.6342 10.6265 27.0405 10.542 28.8685C10.4018 31.9017 11.2962 35.6741 13.4244 39.3615C15.5527 43.0489 18.3717 45.7104 21.0683 47.1063C23.8 48.5204 25.9997 48.4736 27.4428 47.6408C28.8858 46.8079 30.0266 44.9266 30.1687 41.8538C30.1936 41.3145 30.1858 40.7518 30.1442 40.1704C31.1231 40.5976 32.1414 40.9642 33.1829 41.2661Z" fill="black"/>
<path d="M21.4019 31.2978L20.9041 30.2966L17.8023 31.0896L14.903 30.783L10.2039 30.3723L10.4992 32.473L12.6982 32.878L15.1982 32.8837L20.1982 32.895L21.1009 31.6971L21.4019 31.2978Z" fill="#272727"/>
<path d="M21.9863 28.015C18.118 30.7277 11.2198 29.912 9.22326 28.4074" stroke="black" stroke-width="3" stroke-linecap="round"/>
<path d="M22.261 32.5785C18.3928 35.2912 11.4945 34.4755 9.49805 32.9709" stroke="black" stroke-width="3" stroke-linecap="round"/>
<path d="M27.9822 40.0127L25.9856 38.5082L19.8804 40.7943L14.1802 40.8814L14.6779 41.8825L15.8759 42.7852L18.0749 43.1902L20.5749 43.1959L25.3781 41.8068L27.9822 40.0127Z" fill="#272727"/>
<path d="M24.7874 37.605C21.8826 39.7985 15.9267 40.7386 11.6858 38.3752" stroke="black" stroke-width="3" stroke-linecap="round"/>
<path d="M29.1232 40.4672C25.974 43.5085 20.4742 45.4959 15.6157 44.0912" stroke="black" stroke-width="3" stroke-linecap="round"/>
<path d="M75.4438 38.1641C75.1029 37.9072 74.6547 37.7988 74.207 37.9052C74.009 37.9523 73.8032 37.9966 73.5947 38.037C72.7907 38.1931 72.2651 38.9716 72.4212 39.7758C72.5772 40.5798 73.3557 41.1055 74.1598 40.9495C74.4088 40.9011 74.6556 40.8479 74.8936 40.7912C75.6905 40.6016 76.183 39.8018 75.9933 39.0047C75.9102 38.6554 75.7098 38.3645 75.4438 38.1641Z" fill="black"/>
<path d="M83 37.3377C81 34.3377 80.9319 32.1102 81.5 29.8377C82.0681 27.5653 84.0438 26.1649 85.1925 25.5664C86.3411 24.9679 91.1925 24.0659 92.1927 27.5655C93.1928 31.0651 89.5 33.8377 89.5 33.8377C87 35.8377 84.5 36.7641 83 37.3377ZM83 37.3377C83.3218 37.9232 83.9688 38.4625 85.1925 39.0317C88 40.3377 92.1927 39.8377 92.1927 39.8377C92.1927 39.8377 93.7 39.8377 97.2 38.5M83 37.3377C81 38 81 38 79 38.5" stroke="black" stroke-width="3" stroke-linecap="round"/>
<path d="M58.8457 37.7881C57.7307 35.7596 57.3447 32.2057 58.0848 30.2464C59.0384 27.7217 60.7076 26.7098 62.0382 26.0165C63.3687 25.3232 68.0383 24.516 69.0384 28.0156C70.0385 31.5152 66.3457 34.2881 66.3457 34.2881C64.109 35.9656 61.4951 37.2614 58.8457 37.7881ZM58.8457 37.7881C59.1675 38.3736 59.3502 38.4165 59.8457 38.7881C61.8457 40.2881 64.1815 40.3148 65.8457 40.2881C67.0895 40.2681 68.3001 40.1496 69.484 39.9362M58.8457 37.7881C58.2686 37.9028 57.8457 37.7881 55.8457 37.7881" stroke="black" stroke-width="3" stroke-linecap="round"/>
<ellipse cx="14.216" cy="8.66956" rx="14.216" ry="8.66956" transform="matrix(-0.961262 -0.275637 -0.275637 0.961262 53.1797 28.6504)" fill="#FFF3E6"/>
<path d="M48.1463 25.9229C45.8332 24.1797 42.8721 22.8051 39.5476 22.0164C38.1955 21.6942 36.8135 21.4828 35.4412 21.3887C34.9904 21.3564 34.5301 21.3372 34.0769 21.3314C28.8407 21.2625 24.3898 22.9787 22.1716 25.9224C20.6976 27.8785 20.2846 30.2817 21.0086 32.6896C21.1421 33.132 21.3157 33.5809 21.5246 34.0247C22.7776 36.6562 25.3421 39.0692 28.748 40.824C32.0924 42.5473 36.0323 43.5237 39.8415 43.5733C40.6606 43.5839 41.3333 42.9285 41.3439 42.1094C41.3545 41.29 40.6992 40.6174 39.8799 40.6069C33.1449 40.5191 26.2601 37.0701 24.2055 32.7546C24.0611 32.448 23.9402 32.1365 23.8492 31.8342C23.3914 30.3124 23.6241 28.9238 24.5406 27.7075C26.1922 25.5157 29.7426 24.2408 34.0383 24.2975C34.4344 24.3025 34.8365 24.3195 35.234 24.3479C36.4475 24.4311 37.6663 24.6175 38.8609 24.9024C44.4984 26.2398 49.0025 29.522 50.069 33.0695C50.8802 35.7635 49.3902 37.5201 47.9976 38.5195C47.3321 38.9971 47.1798 39.9237 47.6574 40.5893C48.1348 41.2545 49.0618 41.4072 49.7273 40.9295C52.7617 38.752 53.9216 35.5755 52.9096 32.2146C52.21 29.8869 50.5189 27.7109 48.1463 25.9229Z" fill="black"/>
<path d="M45.8521 40.2832C45.5113 40.0264 45.063 39.9179 44.6154 40.0244C44.4173 40.0714 44.2115 40.1158 44.003 40.1562C43.199 40.3123 42.6734 41.0907 42.8295 41.8949C42.9856 42.6989 43.764 43.2246 44.5682 43.0686C44.8171 43.0202 45.0639 42.9671 45.302 42.9103C46.0988 42.7208 46.5913 41.921 46.4016 41.1239C46.3186 40.7746 46.1181 40.4837 45.8521 40.2832Z" fill="black"/>
</svg>
