<svg xmlns="http://www.w3.org/2000/svg" version="1.1" xmlns:xlink="http://www.w3.org/1999/xlink" xmlns:svgjs="http://svgjs.dev/svgjs" width="57" height="55"><svg width="57" height="55" viewBox="0 0 57 55" fill="none" xmlns="http://www.w3.org/2000/svg">
<circle cx="6.5" cy="6.5" r="6.5" transform="matrix(-0.798635 -0.601815 -0.601815 0.798635 22.5356 16.5)" fill="#F0C419"></circle>
<path d="M20.2098 27.8946L20.5221 22.4953L16.2166 24.8856L12.6171 24.6774L10.7189 23.8731L9.81051 27.571L12.108 28.6762L17.108 28.6876L20.2098 27.8946Z" fill="#F0C419"></path>
<path d="M23.989 37.0037L21.7956 34.0987L19.394 34.7933L15.1927 35.3837L10.4936 34.9731L11.0897 36.6744L13.4856 38.4799L18.8849 38.7921L23.989 37.0037Z" fill="#F0C419"></path>
<ellipse cx="3.18095" cy="7.75871" rx="3.18095" ry="7.75871" transform="matrix(-0.385635 -0.922651 -0.922651 0.385635 33.5439 45.0938)" fill="#F0C419"></ellipse>
<path d="M27.9824 40.0127L25.9858 38.5082L19.8806 40.7943L14.1804 40.8814L14.6781 41.8825L15.8761 42.7852L18.0752 43.1902L20.5752 43.1959L25.3783 41.8068L27.9824 40.0127Z" fill="#272727"></path>
<path d="M21.4017 31.2978L20.904 30.2966L17.8022 31.0896L14.9029 30.783L10.2038 30.3723L10.499 32.473L12.6981 32.878L15.1981 32.8837L20.1981 32.895L21.1008 31.6971L21.4017 31.2978Z" fill="#272727"></path>
<path d="M15.7946 26.107C17.2004 25.7303 18.5072 25.0158 19.5735 24.0408C22.0944 21.7382 23.1122 18.26 22.2291 14.9641C21.3356 11.6297 18.6804 9.11836 15.2992 8.41022C13.9172 8.12007 12.4598 8.16143 11.0848 8.52987C6.2392 9.82824 3.35338 14.8274 4.65196 19.6738C5.53354 22.9638 8.14883 25.4658 11.4773 26.2031C12.8919 26.518 14.3851 26.4847 15.7946 26.107ZM11.8544 11.4023C12.7943 11.1505 13.7475 11.1231 14.6883 11.3205C14.6883 11.3205 14.6888 11.3205 14.6891 11.3206C16.9668 11.7975 18.7553 13.4886 19.3569 15.7337C19.9514 17.9526 19.2658 20.2945 17.5676 21.8456C16.8409 22.5101 15.9857 22.9772 15.0249 23.2347C14.0624 23.4926 13.0855 23.5147 12.1215 23.3004C9.87887 22.8035 8.11766 21.1191 7.52421 18.9043C6.65002 15.6418 8.59248 12.2763 11.8544 11.4023Z" fill="black"></path>
<path d="M19.7696 24.8941C20.1849 26.9797 21.4045 28.4568 23.1454 29.2685C25.9577 30.5799 30.1289 30.16 34.4727 27.7765C34.8774 27.5544 35.2745 27.3206 35.6639 27.075L35.6646 27.0736C36.7534 26.3883 37.7775 25.617 38.7228 24.7829C43.3334 20.7218 46.0985 15.1783 45.25 10.9152C44.1659 5.46218 37.5823 4.17282 30.5468 8.03273C24.0154 11.6154 19.3891 18.3778 19.6251 23.6908C19.6452 24.1012 19.692 24.5027 19.7696 24.8941Z" fill="#FFF3E6"></path>
<path d="M45.7191 19.5217C46.928 16.8069 47.3518 14.0844 46.836 11.7086C46.3028 9.25184 44.7764 7.34989 42.5381 6.35321C39.1715 4.85419 34.4466 5.51094 29.8989 8.11024C26.5914 10.0002 23.619 12.7643 21.5294 15.8929C19.4007 19.0798 18.328 22.4331 18.5078 25.3359C18.5404 25.8312 18.6062 26.308 18.704 26.7589C19.2381 29.2167 20.7645 31.1185 23.0019 32.1147C26.3691 33.6139 31.094 32.9571 35.641 30.3579C36.0664 30.1146 36.4889 29.8558 36.8966 29.5886C36.9104 29.5796 36.9239 29.5703 36.9373 29.561C38.0469 28.832 39.1119 28.0034 40.1028 27.0978C42.6224 24.7995 44.5425 22.1643 45.7191 19.5217ZM22.5179 20.215C24.123 16.6099 27.4015 12.9543 31.3711 10.6859C35.1016 8.55375 38.8251 7.94717 41.3314 9.0632C42.7232 9.68284 43.5996 10.7848 43.9368 12.3379C44.7224 15.9557 42.3777 21.0066 38.1024 24.907C37.2155 25.7174 36.2638 26.4566 35.2723 27.1052C35.2587 27.114 35.2455 27.1231 35.2325 27.1322C34.8865 27.3578 34.5288 27.5765 34.1685 27.7824C30.4392 29.9143 26.7158 30.5206 24.2087 29.4044C22.8175 28.785 21.9407 27.6832 21.6031 26.1295C21.5365 25.8219 21.491 25.4908 21.4683 25.1467C21.3737 23.6164 21.7583 21.921 22.5179 20.215Z" fill="black"></path>
<ellipse cx="14.216" cy="8.66956" rx="14.216" ry="8.66956" transform="matrix(-0.961262 -0.275637 -0.275637 0.961262 53.1802 28.6504)" fill="#FFF3E6"></ellipse>
<path d="M48.1462 25.9229C45.8331 24.1797 42.872 22.8051 39.5474 22.0164C38.1954 21.6942 36.8134 21.4828 35.4411 21.3887C34.9903 21.3564 34.53 21.3372 34.0768 21.3314C28.8405 21.2625 24.3897 22.9787 22.1714 25.9224C20.6975 27.8785 20.2844 30.2817 21.0085 32.6896C21.142 33.132 21.3155 33.5809 21.5245 34.0247C22.7775 36.6562 25.342 39.0692 28.7479 40.824C32.0923 42.5473 36.0322 43.5237 39.8414 43.5733C40.6605 43.5839 41.3332 42.9285 41.3438 42.1094C41.3544 41.29 40.6991 40.6174 39.8797 40.6069C33.1448 40.5191 26.26 37.0701 24.2054 32.7546C24.061 32.448 23.9401 32.1365 23.8491 31.8342C23.3913 30.3124 23.6239 28.9238 24.5405 27.7075C26.1921 25.5157 29.7425 24.2408 34.0382 24.2975C34.4343 24.3025 34.8364 24.3195 35.2338 24.3479C36.4474 24.4311 37.6662 24.6175 38.8608 24.9024C44.4983 26.2398 49.0024 29.522 50.0689 33.0695C50.88 35.7635 49.3901 37.5201 47.9975 38.5195C47.332 38.9971 47.1797 39.9237 47.6573 40.5893C48.1346 41.2545 49.0617 41.4072 49.7271 40.9295C52.7616 38.752 53.9215 35.5755 52.9095 32.2146C52.2099 29.8869 50.5187 27.7109 48.1462 25.9229Z" fill="black"></path>
<path d="M45.8522 40.2832C45.5114 40.0264 45.0631 39.9179 44.6155 40.0244C44.4174 40.0714 44.2116 40.1158 44.0032 40.1562C43.1991 40.3123 42.6736 41.0907 42.8297 41.8949C42.9857 42.6989 43.7641 43.2246 44.5683 43.0686C44.8172 43.0202 45.064 42.9671 45.3021 42.9103C46.0989 42.7208 46.5914 41.921 46.4018 41.1239C46.3187 40.7746 46.1182 40.4837 45.8522 40.2832Z" fill="black"></path>
<path fill-rule="evenodd" clip-rule="evenodd" d="M33.183 41.2661C33.1745 45.2788 31.7448 48.6217 28.9425 50.239C23.6797 53.2766 15.5687 49.0779 10.8263 40.8611C7.1221 34.4433 6.56844 27.4724 9.01122 23.2802C9.81261 23.8739 10.7228 24.3307 11.7094 24.6195C11.0646 25.6342 10.6267 27.0405 10.5421 28.8685C10.4019 31.9017 11.2963 35.6741 13.4245 39.3615C15.5528 43.0489 18.3718 45.7104 21.0684 47.1063C23.8001 48.5204 25.9998 48.4736 27.4429 47.6408C28.8859 46.8079 30.0267 44.9266 30.1688 41.8538C30.1937 41.3145 30.186 40.7518 30.1444 40.1704C31.1233 40.5976 32.1415 40.9642 33.183 41.2661Z" fill="black"></path>
<path d="M29.1232 40.4672C25.974 43.5085 20.4742 45.4959 15.6157 44.0912" stroke="black" stroke-width="3" stroke-linecap="round"></path>
<path d="M24.7874 37.605C21.8826 39.7985 15.9267 40.7386 11.6858 38.3752" stroke="black" stroke-width="3" stroke-linecap="round"></path>
<path d="M22.261 32.5785C18.3928 35.2912 11.4945 34.4755 9.49805 32.9709" stroke="black" stroke-width="3" stroke-linecap="round"></path>
<path d="M21.9861 28.015C18.1179 30.7277 11.2196 29.912 9.22314 28.4074" stroke="black" stroke-width="3" stroke-linecap="round"></path>
<path d="M17.2354 10.2402L18.7618 2.38722" stroke="black" stroke-width="3" stroke-linecap="round"></path>
<path d="M12.9966 9.21875L10.926 1.49134" stroke="black" stroke-width="3" stroke-linecap="round"></path>
</svg><style>@media (prefers-color-scheme: light) { :root { filter: none; } }
@media (prefers-color-scheme: dark) { :root { filter: none; } }
</style></svg>